<?xml version='1.0' encoding='utf-8'?>
<svg xmlns:xlink="http://www.w3.org/1999/xlink" xmlns="http://www.w3.org/2000/svg" id="svg1396" version="1.1" viewBox="0 0 507.99999 285.75001" height="1080" width="1920"> <defs id="defs1390"> <linearGradient y2="138.25" x2="1058.3334" y1="402.83334" x1="555.625" gradientTransform="translate(552.16555,5246.0217)" gradientUnits="userSpaceOnUse" id="linearGradient9149" xlink:href="#linearGradient964"/> <linearGradient id="linearGradient964"> <stop id="stop960" offset="0" style="stop-color:#f2f2f2;stop-opacity:1;"/> <stop id="stop962" offset="1" style="stop-color:#f2f2f2;stop-opacity:1"/> </linearGradient> </defs> <metadata id="metadata1393"> </metadata> <g transform="translate(0,-11.249992)" id="layer1"> <g id="g9364" transform="translate(-1134.2489,-5324.3385)"> <rect y="5335.5884" x="1134.2489" height="285.75" width="508" id="rect9147" style="color:#000000;clip-rule:nonzero;display:inline;overflow:visible;visibility:visible;opacity:1;isolation:auto;mix-blend-mode:normal;color-interpolation:sRGB;color-interpolation-filters:linearRGB;solid-color:#000000;solid-opacity:1;fill:url(#linearGradient9149);fill-opacity:1;fill-rule:nonzero;stroke:none;stroke-width:0.079375;stroke-linecap:round;stroke-linejoin:round;stroke-miterlimit:4;stroke-dasharray:none;stroke-dashoffset:0;stroke-opacity:1;color-rendering:auto;image-rendering:auto;shape-rendering:auto;text-rendering:auto;enable-background:accumulate"/> <path style="fill:#5599ff;fill-opacity:1;fill-rule:evenodd;stroke:none;stroke-width:1.2727685px;stroke-linecap:butt;stroke-linejoin:miter;stroke-opacity:1" d="m 5456.4277,20601.838 v 418.273 h 174.2813 v -418.273 z m -209.1367,69.713 v 348.56 h 174.2813 v -348.56 z m -209.1367,69.711 v 278.849 h 174.2812 v -278.849 z m -209.1387,69.713 v 209.136 h 174.2813 v -209.136 z" transform="scale(0.26458333)" id="path9151"/> <path id="path9159" d="m 1476.7273,5395.3574 a 3.6426572,3.6426572 0 0 0 -3.4431,4.8094 l 2.3254,6.8809 -199.3914,66.4614 a 4.612455,4.612455 0 1 0 2.9171,8.7511 l 199.4256,-66.4757 2.2633,6.6991 a 3.6426572,3.6426572 0 0 0 6.1855,1.2399 l 7.7796,-8.8451 7.7786,-8.8438 a 3.6426572,3.6426572 0 0 0 -0.4125,-5.2102 v 0 a 3.6426572,3.6426572 0 0 0 -0.29,-0.22 3.6426572,3.6426572 0 0 0 -1.3166,-0.5482 l -11.5488,-2.3148 -11.5486,-2.3144 a 3.6426572,3.6426572 0 0 0 -0.7232,-0.072 z" style="color:#000000;font-style:normal;font-variant:normal;font-weight:normal;font-stretch:normal;font-size:medium;line-height:normal;font-family:sans-serif;font-variant-ligatures:normal;font-variant-position:normal;font-variant-caps:normal;font-variant-numeric:normal;font-variant-alternates:normal;font-feature-settings:normal;text-indent:0;text-align:start;text-decoration:none;text-decoration-line:none;text-decoration-style:solid;text-decoration-color:#000000;letter-spacing:normal;word-spacing:normal;text-transform:none;writing-mode:lr-tb;direction:ltr;text-orientation:mixed;dominant-baseline:auto;baseline-shift:baseline;text-anchor:start;white-space:normal;shape-padding:0;clip-rule:nonzero;display:inline;overflow:visible;visibility:visible;opacity:1;isolation:auto;mix-blend-mode:normal;color-interpolation:sRGB;color-interpolation-filters:linearRGB;solid-color:#000000;solid-opacity:1;vector-effect:none;fill:#5599ff;fill-opacity:1;fill-rule:evenodd;stroke:none;stroke-width:9.22236824;stroke-linecap:round;stroke-linejoin:miter;stroke-miterlimit:4;stroke-dasharray:none;stroke-dashoffset:0;stroke-opacity:1;color-rendering:auto;image-rendering:auto;shape-rendering:auto;text-rendering:auto;enable-background:accumulate"/> <path style="opacity:0.1;fill:#000000;fill-rule:evenodd;stroke:none;stroke-width:0.99999994px;stroke-linecap:butt;stroke-linejoin:miter;stroke-opacity:1" d="m 5630.709,20601.838 v 418.273 h -174.2813 v -313.705 l -8.9609,-8.963 -25.8945,-25.892 v 348.56 H 5247.291 v -243.992 l -34.8555,-34.855 v 278.847 h -174.2812 v -174.279 l -34.8574,-34.857 v 209.136 h -174.2813 l 225.8926,225.893 h 1152.0176 v -311.488 z" transform="scale(0.26458333)" id="path9187"/> </g> </g> </svg>